<svg xmlns="http://www.w3.org/2000/svg" viewBox="0 0 512 512"><defs><radialGradient id="bg"><stop stop-color="#17233b"/><stop offset="1" stop-color="#050308"/></radialGradient><linearGradient id="gold" x1="0" y1="0" x2="1" y2="1"><stop stop-color="#fff1a3"/><stop offset=".45" stop-color="#f4c65d"/><stop offset="1" stop-color="#b87918"/></linearGradient></defs><rect x="12" y="12" width="488" height="488" rx="92" fill="url(#bg)" stroke="url(#gold)" stroke-width="14"/><circle cx="256" cy="210" r="150" fill="none" stroke="url(#gold)" stroke-width="7"/><circle cx="256" cy="210" r="122" fill="none" stroke="url(#gold)" stroke-width="3"/><g fill="url(#gold)" font-family="Georgia,serif" font-size="45" text-anchor="middle"><text x="256" y="92">♈</text><text x="350" y="132">♓</text><text x="405" y="225">♏</text><text x="350" y="315">♑</text><text x="162" y="315">♋</text><text x="107" y="225">♌</text><text x="162" y="132">♉</text></g><path d="M95 210 Q170 125 256 210 Q342 295 417 210 Q342 125 256 210 Q170 295 95 210Z" fill="none" stroke="url(#gold)" stroke-width="10"/><circle cx="256" cy="210" r="45" fill="#08050e" stroke="url(#gold)" stroke-width="7"/><path d="M256 157 269 197 311 210 269 223 256 263 243 223 201 210 243 197Z" fill="url(#gold)"/><text x="256" y="390" fill="url(#gold)" font-family="Georgia,serif" font-size="66" letter-spacing="5" text-anchor="middle">SIDDHA</text><text x="256" y="438" fill="#fffaf0" font-family="Georgia,serif" font-size="35" letter-spacing="12" text-anchor="middle">ASTRO</text></svg>